# xmcd CD database file
# Copyright (C) 1995-1998 Ti Kan
#
# Track frame offsets:
#	150
#	18385
#	39287
#	56225
#	72797
#	92102
#	112177
#	134745
#	150942
#	170500
#
# Disc length: 2537 seconds
#
# Revision: 1
# Processed by: cddbd v1.4PL0 Copyright (c) Steve Scherf et al.
# Submitted via: CDex 1.30Release
#
DISCID=8509e70a
DTITLE=Sy Klopps - Berkeley Soul
DYEAR=2000
DGENRE=Blues
TTITLE0=Running Blue
TTITLE1=Wherever I Lay My Hat
TTITLE2=You Gotta Move
TTITLE3=Talk To Me
TTITLE4=Cryin For My Baby
TTITLE5=Walk Slow
TTITLE6=Stand By Me
TTITLE7=The Rock
TTITLE8=Living In The House Of Blues
TTITLE9=Appetite For Love
EXTD=YEAR: 2000 ID3G:   0
EXTT0=
EXTT1=
EXTT2=
EXTT3=
EXTT4=
EXTT5=
EXTT6=
EXTT7=
EXTT8=
EXTT9=
PLAYORDER=
